<svg data-v-423bf9ae="" xmlns="http://www.w3.org/2000/svg" viewBox="0 0 323 90" class="iconLeft"><!----><!----><!----><g data-v-423bf9ae="" id="07b04ab1-19a5-4fd9-8ccd-ab3e0228ca41" fill="#000000" transform="matrix(5.676442926425062,0,0,5.676442926425062,108.01325125467112,-3.2213810566892462)"><path d="M0.84 12.35L0.71 12.19L0.71 12.19Q0.35 11.75 0.35 11.39L0.35 11.39L0.35 11.39Q0.35 11.03 0.95 10.44L0.95 10.44L0.95 10.44Q1.30 10.11 1.69 10.11L1.69 10.11L1.69 10.11Q2.09 10.11 2.79 10.81L2.79 10.81L2.79 10.81Q2.98 11.05 3.35 11.26L3.35 11.26L3.35 11.26Q3.71 11.48 4.02 11.48L4.02 11.48L4.02 11.48Q5.32 11.48 5.32 10.42L5.32 10.42L5.32 10.42Q5.32 10.09 4.96 9.88L4.96 9.88L4.96 9.88Q4.61 9.66 4.07 9.56L4.07 9.56L4.07 9.56Q3.54 9.46 2.93 9.25L2.93 9.25L2.93 9.25Q2.31 9.03 1.78 8.74L1.78 8.74L1.78 8.74Q1.25 8.44 0.89 7.81L0.89 7.81L0.89 7.81Q0.53 7.17 0.53 6.27L0.53 6.27L0.53 6.27Q0.53 5.04 1.45 4.12L1.45 4.12L1.45 4.12Q2.37 3.21 3.95 3.21L3.95 3.21L3.95 3.21Q4.79 3.21 5.48 3.42L5.48 3.42L5.48 3.42Q6.17 3.64 6.44 3.86L6.44 3.86L6.79 4.13L6.79 4.13Q7.22 4.54 7.22 4.82L7.22 4.82L7.22 4.82Q7.22 5.10 6.89 5.59L6.89 5.59L6.89 5.59Q6.41 6.29 5.91 6.29L5.91 6.29L5.91 6.29Q5.61 6.29 5.18 6.01L5.18 6.01L5.18 6.01Q5.14 5.98 5.02 5.87L5.02 5.87L5.02 5.87Q4.90 5.75 4.80 5.68L4.80 5.68L4.80 5.68Q4.51 5.50 4.05 5.50L4.05 5.50L4.05 5.50Q3.60 5.50 3.30 5.72L3.30 5.72L3.30 5.72Q3.00 5.94 3.00 6.32L3.00 6.32L3.00 6.32Q3.00 6.71 3.35 6.94L3.35 6.94L3.35 6.94Q3.71 7.18 4.24 7.27L4.24 7.27L4.24 7.27Q4.77 7.35 5.40 7.53L5.40 7.53L5.40 7.53Q6.03 7.70 6.57 7.95L6.57 7.95L6.57 7.95Q7.10 8.20 7.46 8.83L7.46 8.83L7.46 8.83Q7.81 9.45 7.81 10.36L7.81 10.36L7.81 10.36Q7.81 11.27 7.45 11.96L7.45 11.96L7.45 11.96Q7.08 12.66 6.50 13.03L6.50 13.03L6.50 13.03Q5.36 13.78 4.07 13.78L4.07 13.78L4.07 13.78Q3.42 13.78 2.83 13.62L2.83 13.62L2.83 13.62Q2.24 13.45 1.88 13.22L1.88 13.22L1.88 13.22Q1.13 12.77 0.84 12.35L0.84 12.35ZM14.08 4.10L14.08 4.10L17.86 11.91L17.86 11.91Q18.10 12.39 18.10 12.63L18.10 12.63L18.10 12.63Q18.10 13.13 17.29 13.54L17.29 13.54L17.29 13.54Q16.81 13.78 16.54 13.78L16.54 13.78L16.54 13.78Q16.27 13.78 16.09 13.65L16.09 13.65L16.09 13.65Q15.92 13.52 15.84 13.38L15.84 13.38L15.84 13.38Q15.76 13.24 15.62 12.96L15.62 12.96L14.90 11.45L11.02 11.45L10.29 12.96L10.29 12.96Q10.15 13.24 10.07 13.37L10.07 13.37L10.07 13.37Q10.00 13.50 9.82 13.63L9.82 13.63L9.82 13.63Q9.65 13.76 9.37 13.76L9.37 13.76L9.37 13.76Q9.10 13.76 8.62 13.52L8.62 13.52L8.62 13.52Q7.81 13.13 7.81 12.63L7.81 12.63L7.81 12.63Q7.81 12.39 8.05 11.91L8.05 11.91L11.83 4.09L11.83 4.09Q11.98 3.77 12.30 3.57L12.30 3.57L12.30 3.57Q12.61 3.37 12.96 3.37L12.96 3.37L12.96 3.37Q13.72 3.37 14.08 4.10ZM13.89 9.38L12.95 7.46L12.03 9.38L13.89 9.38ZM25.50 3.80L25.50 3.80L25.50 3.80Q25.63 3.56 25.90 3.47L25.90 3.47L25.90 3.47Q26.17 3.39 26.57 3.39L26.57 3.39L26.57 3.39Q26.96 3.39 27.21 3.46L27.21 3.46L27.21 3.46Q27.45 3.53 27.57 3.63L27.57 3.63L27.57 3.63Q27.69 3.72 27.75 3.92L27.75 3.92L27.75 3.92Q27.83 4.14 27.83 4.63L27.83 4.63L27.83 12.40L27.83 12.40Q27.83 12.74 27.81 12.89L27.81 12.89L27.81 12.89Q27.79 13.05 27.68 13.26L27.68 13.26L27.68 13.26Q27.48 13.64 26.59 13.64L26.59 13.64L26.59 13.64Q26.04 13.64 25.83 13.55L25.83 13.55L25.83 13.55Q25.62 13.47 25.48 13.29L25.48 13.29L25.48 13.29Q22.33 9.09 21.34 7.80L21.34 7.80L21.34 12.40L21.34 12.40Q21.34 12.74 21.32 12.89L21.32 12.89L21.32 12.89Q21.29 13.05 21.18 13.26L21.18 13.26L21.18 13.26Q20.99 13.64 20.09 13.64L20.09 13.64L20.09 13.64Q19.22 13.64 19.03 13.26L19.03 13.26L19.03 13.26Q18.91 13.05 18.89 12.88L18.89 12.88L18.89 12.88Q18.87 12.71 18.87 12.39L18.87 12.39L18.87 4.58L18.87 4.58Q18.87 4.05 19.01 3.80L19.01 3.80L19.01 3.80Q19.14 3.56 19.40 3.47L19.40 3.47L19.40 3.47Q19.67 3.39 20.09 3.39L20.09 3.39L20.09 3.39Q20.51 3.39 20.76 3.47L20.76 3.47L20.76 3.47Q21 3.54 21.10 3.64L21.10 3.64L21.10 3.64Q21.15 3.68 21.42 4.00L21.42 4.00L21.42 4.00Q24.37 8.02 25.37 9.31L25.37 9.31L25.37 4.58L25.37 4.58Q25.37 4.05 25.50 3.80ZM37.10 3.57L37.10 3.57L37.10 3.57Q37.79 4.05 37.79 4.49L37.79 4.49L37.79 4.49Q37.79 4.76 37.46 5.24L37.46 5.24L34.44 9.76L34.44 12.43L34.44 12.43Q34.44 12.75 34.42 12.92L34.42 12.92L34.42 12.92Q34.40 13.08 34.29 13.29L34.29 13.29L34.29 13.29Q34.17 13.50 33.91 13.58L33.91 13.58L33.91 13.58Q33.64 13.66 33.19 13.66L33.19 13.66L33.19 13.66Q32.75 13.66 32.48 13.58L32.48 13.58L32.48 13.58Q32.21 13.50 32.10 13.28L32.10 13.28L32.10 13.28Q31.99 13.06 31.97 12.90L31.97 12.90L31.97 12.90Q31.95 12.74 31.95 12.40L31.95 12.40L31.95 9.76L28.92 5.24L28.92 5.24Q28.60 4.76 28.60 4.49L28.60 4.49L28.60 4.49Q28.60 4.05 29.22 3.63L29.22 3.63L29.22 3.63Q29.83 3.22 30.10 3.22L30.10 3.22L30.10 3.22Q30.37 3.22 30.52 3.33L30.52 3.33L30.52 3.33Q30.76 3.49 31.02 3.91L31.02 3.91L33.19 7.38L35.36 3.91L35.36 3.91Q35.63 3.49 35.83 3.35L35.83 3.35L35.83 3.35Q36.02 3.22 36.28 3.22L36.28 3.22L36.28 3.22Q36.54 3.22 37.10 3.57Z"></path></g><defs data-v-423bf9ae=""><linearGradient data-v-423bf9ae="" gradientTransform="rotate(25)" id="f3686f14-763c-4509-b8a5-7e8767e9b65b" x1="0%" y1="0%" x2="100%" y2="0%"><stop data-v-423bf9ae="" offset="0%" style="stop-color: rgb(8, 91, 32); stop-opacity: 1;"></stop><stop data-v-423bf9ae="" offset="100%" style="stop-color: rgb(65, 226, 150); stop-opacity: 1;"></stop></linearGradient></defs><g data-v-423bf9ae="" id="95b94d21-f32a-4a42-b956-fc428acbf68d" transform="matrix(2.8125,0,0,2.8125,0,0)" stroke="none" fill="url(#f3686f14-763c-4509-b8a5-7e8767e9b65b)"><path d="M15.965 16.258l.707-.707 10.39 10.39-.707.707z"></path><path d="M4.935 26.357L26.018 5.274l.707.707L5.642 27.065z"></path><path d="M31 1v4.194h-4.194V1H31m1-1h-6.194v6.194H32V0zM31 26.806V31h-4.194v-4.194H31m1-1h-6.194V32H32v-6.194zM5.194 26.806V31H1v-4.194h4.194m1-1H0V32h6.194v-6.194z"></path></g><!----></svg>